<?xml version="1.0" encoding="UTF-8"?> <svg xmlns="http://www.w3.org/2000/svg" width="520" height="520" viewBox="0 0 520 520" fill="none"> <path d="M274.411 302.84C274.411 275.029 297.165 252.781 324.975 252.781H343.684C359.359 252.781 372 240.14 372 224.465H324.975C320.93 224.465 316.885 224.971 313.345 225.476C304.749 226.488 302.221 214.352 310.312 211.824C314.862 210.307 319.919 209.801 324.975 209.801H343.684C359.359 209.801 372 197.16 372 181.485H324.975C319.919 181.485 315.368 181.991 310.817 183.002C302.727 184.519 299.187 172.889 307.278 169.856C312.84 167.833 318.907 166.316 325.481 166.316H343.684C359.359 166.316 372 153.675 372 138H325.481C281.996 138 245.589 172.889 246.095 215.869C246.6 244.185 223.847 266.939 195.53 266.939H177.833C162.158 266.939 149.517 279.58 149.517 295.255H195.025C200.081 295.255 204.632 294.749 209.183 293.738C217.273 292.221 220.813 303.851 212.722 306.885C207.16 308.908 201.093 310.424 194.519 310.424H176.822C161.147 310.424 148.506 323.065 148.506 338.74H194.014C198.059 338.74 202.104 338.235 205.643 337.729C214.239 336.718 216.767 348.853 208.677 351.381C204.126 352.898 199.07 353.404 194.014 353.404H176.316C160.641 353.404 148 366.045 148 381.72H193.508C239.016 381.72 274.411 346.325 274.411 302.84Z" fill="#201B21"></path> </svg> 