<?xml version="1.0" encoding="UTF-8"?> <svg xmlns="http://www.w3.org/2000/svg" width="803" height="803" viewBox="0 0 803 803" fill="none"> <path fill-rule="evenodd" clip-rule="evenodd" d="M257.679 27.0908C298.716 11.3096 342.069 2.38459 386.002 0.673096L397.97 307.87C399.178 307.824 400.392 307.801 401.611 307.801C409.795 307.801 417.733 308.851 425.298 310.825L503.1 13.4245C545.635 24.5519 586.051 42.5989 622.729 66.8429L453.212 323.303C461.11 328.535 468.168 334.932 474.141 342.251L712.428 148.004C740.208 182.083 762.195 220.498 777.508 261.712L489.346 368.777C492.55 377.398 494.519 386.618 495.039 396.225L802.005 379.312C804.423 423.212 799.606 467.212 787.745 509.548L491.731 426.62C489.151 435.848 485.191 444.5 480.088 452.34L737.919 619.778C713.973 656.652 684.126 689.336 649.573 716.523L459.467 474.908C452.176 480.652 444.011 485.335 435.203 488.724L545.545 775.653C504.508 791.434 461.155 800.359 417.221 802.071L405.254 494.865C404.045 494.911 402.831 494.934 401.611 494.934C393.429 494.934 385.493 493.884 377.929 491.911L300.127 789.315C257.591 778.187 217.175 760.14 180.497 735.896L350.015 479.435C342.118 474.205 335.061 467.81 329.089 460.493L90.7993 654.742C63.0193 620.663 41.0328 582.248 25.72 541.034L313.881 433.97C310.677 425.35 308.706 416.131 308.184 406.527L1.21908 423.439C-1.19966 379.539 3.61776 335.54 15.4785 293.203L311.488 376.131C314.067 366.901 318.026 358.247 323.128 350.406L65.3043 182.974C89.2503 146.1 119.097 113.415 153.651 86.2283L343.748 327.833C351.04 322.087 359.208 317.403 368.018 314.012L257.679 27.0908Z" fill="black"></path> </svg> 