<?xml version="1.0" encoding="UTF-8"?> <svg xmlns="http://www.w3.org/2000/svg" id="_Слой_1" data-name="Слой 1" version="1.1" viewBox="0 0 172 169"><defs><style> .cls-1 { fill: #9dfc03; stroke-width: 0px; } </style></defs><g><path class="cls-1" d="M56.3,10.6l2.6,6,.7-.3,1.3,3.2-1,.4-1-2.2-4.8,2.1.9,2.2-1,.4-1.4-3.1.6-.3c.1-.6.1-1.1,0-1.7-.1-1-.4-2-.8-2.9l-.8-1.8,4.6-2ZM53.7,14.2c.4.9.7,1.9.8,2.7,0,.5,0,1,0,1.5l3.2-1.4-2.2-5-2.3,1,.5,1.1Z"></path><path class="cls-1" d="M66.1,15.3l-.4-.9h0c-.2.7-.8,1.5-1.9,1.8-1.5.5-2.5-.3-2.8-1.4-.5-1.7.7-3.2,3.5-4h0c-.2-.7-.7-1.8-2.2-1.3-.7.2-1.3.6-1.7,1.1l-.6-.8c.5-.6,1.3-1.1,2.2-1.4,2.2-.7,3.2.7,3.7,2.1l.8,2.7c.2.6.4,1.2.7,1.7l-1.2.4ZM64.7,11.6c-1.4.4-3,1.2-2.6,2.6.3.8,1,1.1,1.6.9.9-.3,1.3-1.1,1.4-1.7,0-.1,0-.3,0-.4l-.4-1.3Z"></path><path class="cls-1" d="M68.3,6.9c.5-.2,1.5-.4,2.3-.6,1.2-.2,3.3-.4,3.6,1.2.2.9-.4,1.6-1.2,2h0c1.1,0,2,.4,2.2,1.5.4,1.9-2,2.7-3.5,2.9-.8.2-1.7.3-2.1.3l-1.4-7.3ZM70.2,9.7l1-.2c1-.2,2-.7,1.8-1.5-.1-.7-.8-1-2.2-.7-.4,0-.7.2-1,.3l.4,2.2ZM70.8,13.1c.4,0,.7,0,1.1-.1.9-.2,2.2-.6,2-1.7-.2-1.1-1.3-1.1-2.6-.9l-1,.2.5,2.5Z"></path><path class="cls-1" d="M82.1,12.6l-.2-.9h0c-.4.6-1.1,1.2-2.2,1.3-1.5.1-2.4-.9-2.5-2-.1-1.8,1.4-2.9,4.3-3.1v-.2c0-.6-.3-1.7-1.9-1.6-.7,0-1.4.3-1.9.7l-.4-.9c.6-.5,1.5-.8,2.4-.9,2.3-.2,3,1.4,3.1,2.9l.2,2.8c0,.7.1,1.3.3,1.8h-1.2ZM81.6,8.7c-1.5,0-3.2.5-3.1,1.9,0,.9.7,1.3,1.4,1.2,1,0,1.6-.7,1.7-1.4,0-.1,0-.3,0-.4v-1.3Z"></path><path class="cls-1" d="M87.5,4.9v3.2c-.2,1.2-.2,1.9-.3,3h0c.5-.9.8-1.4,1.3-2.3l2.5-3.8h1.6c0,0-.3,7.6-.3,7.6h-1.3c0,0,.1-3.2.1-3.2,0-1.2.1-1.9.2-3.1h0c-.5.9-.9,1.5-1.3,2.3-.8,1.1-1.7,2.6-2.5,3.8h-1.6c0,0,.3-7.6.3-7.6h1.3ZM88.5,1.9c0,.7.3,1.2.9,1.2.7,0,1-.5,1.1-1.1h1c-.1,1.3-1,1.9-2.2,1.9-1.4,0-1.9-.9-1.9-2h1Z"></path><path class="cls-1" d="M101.1,6.3l-.2,1.1-2.3-.4-1,6.4-1.3-.2,1-6.4-2.3-.4.2-1.1,6,.9Z"></path><path class="cls-1" d="M103.1,10.8c-.4,1.8.5,2.8,1.9,3.2,1,.2,1.6.2,2.1.1v1c-.5,0-1.4.1-2.6-.2-2.3-.6-3.2-2.4-2.6-4.6.6-2.2,2.3-3.6,4.4-3.1,2.4.6,2.5,2.9,2.1,4.2,0,.3-.2.5-.2.6l-5.1-1.3ZM107.3,10.9c.2-.8.2-2.2-1.3-2.6-1.3-.3-2.3.7-2.6,1.6l3.9,1Z"></path><path class="cls-1" d="M115.5,13.9l.6.3c1.1.5,2,.3,2.3-.3.3-.6-.1-1.2-.9-1.6-.6-.2-1.3-.3-1.9-.3v-.9c.9-.1,1.8,0,2.6.4,1.1.5,2.1,1.5,1.5,2.8-.4.9-1.4,1.1-2.2.9h0c1,.6,1.6,1.6,1.1,2.6-.7,1.5-2.4,1.4-3.9.7-.8-.4-1.5-.9-2-1.5l.7-.7c.4.5,1,1,1.6,1.3,1,.5,1.9.2,2.2-.4.4-.9-.4-1.6-1.5-2.1l-.6-.3.4-.9Z"></path><path class="cls-1" d="M124.7,14.8l-1.5,2.6,3.1,1.8,1.5-2.6,1.2.7-3.8,6.5-1.2-.7,1.7-3-3.1-1.8-1.7,3-1.2-.7,3.8-6.5,1.2.7Z"></path><path class="cls-1" d="M130.8,27.9l.5-.8h0c-.7.2-1.7.1-2.5-.5-1.2-.9-1.2-2.2-.5-3.1,1.1-1.5,3-1.3,5.3.5h0c.4-.6.9-1.6-.3-2.5-.6-.4-1.3-.7-1.9-.7l.3-.9c.7,0,1.6.4,2.4,1,1.8,1.4,1.3,3,.4,4.2l-1.7,2.3c-.4.5-.8,1.1-1,1.5l-1-.7ZM132.9,24.7c-1.2-.9-2.7-1.7-3.6-.6-.5.7-.3,1.4.2,1.8.8.6,1.7.5,2.2,0,.1,0,.2-.2.3-.3l.8-1Z"></path><path class="cls-1" d="M139.9,25.7l-2.2,2.4.2.2,4.3-.4,1.2,1.1-4.7.2c.8.9.8,2,.3,3.4-.2.5-.5,1.2-.7,1.9l-1-1c0-.4.3-1,.5-1.6.5-1.2.3-2.1-.6-3l-.2-.2-2.3,2.4-1-.9,5.2-5.5,1,.9Z"></path><path class="cls-1" d="M146.7,38.5c-2.1,1.8-4.3,1.1-5.5-.3-1.3-1.6-1.2-3.7.6-5.3,1.9-1.6,4.1-1.3,5.5.3,1.4,1.7,1.1,3.8-.6,5.3ZM142.8,34c-1.3,1.1-1.6,2.6-.7,3.6.8,1,2.4,1,3.7-.1,1-.8,1.8-2.4.8-3.6-1-1.2-2.6-.8-3.7.1Z"></path><path class="cls-1" d="M151.5,38.7l.9,1.4-2.5,3.2c-.4.5-1,1.2-1.4,1.7h0c.6-.1,1.8-.4,2.7-.6l3.4-.7.9,1.4-6.1,4.5-.7-1.1,2.9-2.1c.7-.5,1.4-1.1,2.2-1.6h0c-.7.2-1.3.3-2.5.6l-4,.8-.5-.8,2.4-3.1c.5-.6,1.2-1.4,1.7-2h0c-.8.4-1.6.9-2.4,1.3l-3.1,1.8-.7-1.1,6.7-3.6Z"></path><path class="cls-1" d="M157.9,49.5l-2.9,1.3c-1.1.5-1.8.8-2.8,1.2h0c1,0,1.6,0,2.6.2l4.5.5.7,1.5-6.8,3.2-.6-1.2,2.9-1.3c1.1-.5,1.7-.8,2.8-1.2h0c-1.1,0-1.8-.1-2.6-.2-1.4-.2-3-.3-4.6-.5l-.7-1.4,6.8-3.2.5,1.2Z"></path><path class="cls-1" d="M162.9,62.3l-1,.3-.8-2.2-6.1,2.1-.4-1.3,6.1-2.1-.8-2.2,1-.3,1.9,5.7Z"></path><path class="cls-1" d="M163.9,66l-2.5.6c.1.3.3.8.3,1.2.4,1.7.2,3.5-1.7,4-.8.2-1.4,0-1.9-.4-.9-.7-1.3-1.9-1.6-3-.2-.7-.3-1.4-.3-2l7.3-1.6.3,1.3ZM157.4,67.5c0,.3,0,.6.2,1,.2,1,.8,2.2,2.1,1.9,1.3-.3,1.3-1.7,1-2.7,0-.4-.2-.6-.3-.9l-3,.7Z"></path><path class="cls-1" d="M158.7,79.8c-.2-.3-.6-1.1-.7-2.1-.3-2.3,1.1-3.9,3.4-4.2,2.3-.3,4.2,1.1,4.4,3.6,0,.8,0,1.5-.2,1.9l-1.1-.2c.1-.3.3-.9.2-1.6-.2-1.7-1.6-2.5-3.1-2.3-1.7.2-2.7,1.4-2.5,2.9,0,.8.3,1.3.6,1.6l-1,.3Z"></path><path class="cls-1" d="M158.6,87.6v-1.4s3.1,0,3.1,0v-1c0-.6-.2-1-.5-1.3-.5-.6-1.4-.7-2.1-1-.2,0-.4-.2-.6-.3v-1.5c.2.2.5.3.8.5.7.3,1.7.5,2.3,1.1.2.2.4.5.5.9h0c0-1,.7-2,1.8-2,.8,0,1.3.4,1.7,1,.4.6.5,1.5.6,2.5,0,.9,0,1.8-.1,2.4h-7.5ZM165.2,86.1c0-.3,0-.7,0-1.1,0-.9-.3-2-1.3-2-1,0-1.3,1.2-1.3,2,0,.6,0,.9,0,1.2h2.5Z"></path><path class="cls-1" d="M162.2,110l-7.3-2.1.4-1.3,6.2,1.8,1-3.4-6.2-1.8.4-1.3,7.3,2.1-1.7,6Z"></path><path class="cls-1" d="M158.7,112.5c.9.4,1.6.7,2.3.9l-.5,1.1-1.2-.5h0c.6.9.8,1.9.3,3.1-.7,1.7-2.7,2.3-4.8,1.4-2.5-1.1-3.1-3.1-2.4-4.7.4-.9,1.1-1.5,2-1.7h0s-3.8-1.6-3.8-1.6l.5-1.2,7.5,3.2ZM156.3,112.9c-.2,0-.4-.1-.5-.2-1-.1-1.9.4-2.3,1.3-.6,1.3.2,2.6,1.8,3.3,1.4.6,2.9.4,3.5-1,.4-.9,0-1.9-.7-2.6-.1-.1-.3-.2-.5-.3l-1.2-.5Z"></path><path class="cls-1" d="M156.1,123.9l-2.7-1.6c-1-.6-1.7-1-2.6-1.6h0c.6.9.9,1.4,1.4,2.3l2.2,4-.8,1.4-6.5-3.8.7-1.1,2.8,1.6c1.1.6,1.6,1,2.6,1.6h0c-.6-.9-.9-1.5-1.4-2.3-.6-1.2-1.5-2.7-2.2-4l.8-1.4,6.5,3.8-.7,1.1Z"></path><path class="cls-1" d="M151.4,131.2c-.2.5-.8,1.3-1.3,2-.8,1-2.2,2.5-3.5,1.5-.7-.6-.8-1.5-.4-2.3h0c-.8.8-1.8,1-2.7.4-1.6-1.2-.3-3.3.6-4.5.5-.7,1.1-1.3,1.4-1.6l5.9,4.5ZM145.4,128.3c-.3.3-.5.5-.7.8-.6.7-1.2,2-.3,2.6.9.7,1.7,0,2.5-1.1l.6-.8-2-1.6ZM148.1,130.4l-.6.8c-.6.8-1,1.8-.3,2.4.6.5,1.3.2,2.1-.9.3-.4.4-.6.6-.9l-1.8-1.4Z"></path><path class="cls-1" d="M142.3,136.2c-1.4-1.3-2.7-.9-3.7,0-.7.7-1,1.3-1.2,1.8l-.9-.5c.2-.5.6-1.3,1.4-2.1,1.6-1.7,3.7-1.6,5.3,0,1.6,1.6,2,3.8.5,5.4-1.7,1.8-3.7.7-4.7-.2-.2-.2-.3-.4-.4-.5l3.7-3.8ZM140.2,139.8c.6.6,1.9,1.3,2.9.2,1-1,.5-2.3-.2-3.1l-2.8,2.9Z"></path><path class="cls-1" d="M135.4,148.1l-.7-.8,1.8-1.5-4.2-4.9,1-.9,4.2,4.9,1.8-1.5.7.8-4.6,3.9Z"></path><path class="cls-1" d="M129.7,143.9c.3.5.2,1-.2,1.3-.5.3-1,.2-1.3-.2-.3-.4-.3-1,.2-1.3.4-.3,1-.2,1.3.2ZM130.7,146l4.6,5.9-1.2.9-4.2-6.2.9-.6Z"></path><path class="cls-1" d="M116.6,159.1l-2.7-5.9-.7.3-1.3-3.1,1-.4,1.1,2.2,4.8-2.2-.9-2.2,1-.4,1.5,3.1-.6.3c0,.6-.1,1.1,0,1.7.1,1,.4,2,.8,2.9l.8,1.8-4.6,2.1ZM119.1,155.4c-.4-.9-.7-1.8-.8-2.7,0-.5,0-1,0-1.5l-3.2,1.4,2.3,5,2.3-1-.5-1.1Z"></path><path class="cls-1" d="M106.8,154.5l.4.9h0c.2-.7.8-1.5,1.9-1.8,1.5-.5,2.5.3,2.9,1.4.6,1.7-.7,3.2-3.5,4.1h0c.2.7.7,1.8,2.2,1.3.7-.2,1.3-.6,1.7-1.1l.6.8c-.5.6-1.2,1.1-2.2,1.4-2.2.7-3.2-.6-3.7-2.1l-.9-2.7c-.2-.6-.4-1.2-.7-1.7l1.2-.4ZM108.1,158.1c1.4-.4,3-1.2,2.5-2.6-.3-.8-1-1.1-1.6-.9-.9.3-1.3,1.1-1.4,1.8,0,.1,0,.3,0,.4l.4,1.2Z"></path><path class="cls-1" d="M104.6,162.8c-.5.2-1.4.5-2.3.6-1.2.2-3.3.5-3.7-1.2-.2-.9.4-1.6,1.2-2h0c-1.1,0-2-.4-2.2-1.5-.4-1.9,2-2.7,3.5-3,.8-.2,1.7-.3,2.1-.3l1.5,7.3ZM102,156.7c-.4,0-.7,0-1.1.2-.9.2-2.2.7-2,1.7s1.3,1.1,2.6.8l1-.2-.5-2.5ZM102.7,160.1l-1,.2c-1,.2-2,.7-1.8,1.6.1.7.9,1,2.2.7.4,0,.7-.2,1-.3l-.4-2.2Z"></path><path class="cls-1" d="M90.8,157.4l.2.9h0c.4-.6,1.1-1.2,2.2-1.3,1.5-.1,2.4.9,2.5,2,.2,1.8-1.4,2.9-4.3,3.2v.2c0,.6.3,1.7,1.9,1.6.7,0,1.4-.3,1.9-.7l.4.9c-.6.5-1.5.8-2.4.9-2.3.2-3-1.3-3.1-2.8l-.2-2.8c0-.7-.1-1.3-.3-1.8h1.2ZM91.3,161.2c1.5,0,3.2-.5,3-2,0-.9-.7-1.3-1.4-1.2-1,0-1.5.8-1.7,1.4,0,.1,0,.3,0,.4v1.3Z"></path><path class="cls-1" d="M85.5,165.1v-3.2c.1-1.2.2-1.9.3-3h0c-.5.9-.8,1.4-1.3,2.3l-2.5,3.8h-1.6c0,0,.2-7.6.2-7.6h1.3s-.1,3.2-.1,3.2c0,1.2,0,1.9-.2,3.1h0c.5-.9.9-1.5,1.3-2.3.8-1.1,1.6-2.6,2.5-3.9h1.6s-.2,7.6-.2,7.6h-1.3ZM84.5,168.1c0-.7-.3-1.2-1-1.2-.7,0-1,.5-1.1,1.2h-1c.1-1.3.9-1.9,2.1-1.9,1.4,0,1.9.9,1.9,2h-1Z"></path><path class="cls-1" d="M71.8,163.8l.2-1.1,2.3.3.9-6.4,1.3.2-.9,6.4,2.3.3-.2,1.1-6-.8Z"></path><path class="cls-1" d="M69.8,159.3c.4-1.8-.6-2.8-1.9-3.2-1-.2-1.6-.2-2.1-.1v-1c.5,0,1.4-.1,2.6.1,2.3.6,3.2,2.4,2.7,4.6s-2.3,3.6-4.4,3.1c-2.4-.6-2.5-2.8-2.2-4.2,0-.3.1-.5.2-.6l5.1,1.3ZM65.6,159.3c-.2.8-.2,2.2,1.3,2.6,1.3.3,2.2-.8,2.6-1.7l-3.9-1Z"></path><path class="cls-1" d="M57.3,156.3l-.6-.3c-1.1-.5-2-.3-2.3.4-.3.6.1,1.2.9,1.6.6.2,1.3.3,1.9.2v.9c-.9.1-1.8,0-2.6-.4-1.1-.5-2.1-1.5-1.6-2.8.4-.9,1.4-1.1,2.2-.9h0c-1-.6-1.6-1.6-1.1-2.6.6-1.5,2.4-1.4,3.9-.8.8.3,1.5.9,2,1.5l-.7.7c-.4-.5-1-1-1.6-1.3-1-.4-1.9-.2-2.2.5-.4.9.5,1.6,1.5,2.1l.6.3-.4.9Z"></path><path class="cls-1" d="M48.2,155.5l1.5-2.6-3.1-1.8-1.5,2.6-1.2-.7,3.7-6.6,1.2.7-1.7,3,3.1,1.8,1.7-3,1.2.7-3.7,6.6-1.2-.7Z"></path><path class="cls-1" d="M41.9,142.6l-.5.8h0c.7-.2,1.7-.1,2.5.5,1.2.9,1.2,2.2.6,3.1-1.1,1.5-3,1.3-5.3-.4h0c-.4.6-.9,1.6.3,2.5.6.4,1.3.7,1.9.7l-.3.9c-.7,0-1.6-.4-2.4-.9-1.9-1.4-1.4-3-.5-4.2l1.7-2.3c.4-.5.7-1.1,1-1.5l1,.7ZM39.8,145.8c1.2.9,2.7,1.7,3.6.5.5-.7.3-1.4-.3-1.8-.8-.6-1.7-.4-2.2,0-.1,0-.2.2-.3.3l-.8,1.1Z"></path><path class="cls-1" d="M32.9,144.8l2.2-2.4-.2-.2-4.3.5-1.2-1.1,4.7-.3c-.8-.9-.8-2-.3-3.4.2-.5.5-1.2.6-1.9l1.1,1c0,.4-.3,1-.5,1.6-.4,1.2-.3,2.1.6,3l.2.2,2.2-2.4,1,.9-5.1,5.6-1-.9Z"></path><path class="cls-1" d="M25.9,132.1c2.1-1.8,4.3-1.2,5.5.2,1.3,1.5,1.2,3.7-.6,5.3-1.9,1.7-4.1,1.4-5.5-.2-1.4-1.6-1.2-3.8.6-5.3ZM29.9,136.6c1.3-1.1,1.6-2.6.7-3.6-.9-1-2.4-.9-3.7.2-1,.8-1.8,2.4-.7,3.6s2.7.8,3.7-.2Z"></path><path class="cls-1" d="M21.1,132l-.9-1.4,2.4-3.2c.4-.5,1-1.2,1.4-1.7h0c-.6.1-1.8.4-2.7.6l-3.4.8-.9-1.4,6-4.6.7,1.1-2.9,2.1c-.7.5-1.4,1.1-2.2,1.6h0c.7-.2,1.3-.3,2.5-.6l4-.9.5.8-2.4,3.2c-.5.6-1.2,1.5-1.7,2h0c.8-.4,1.6-.9,2.3-1.3l3.1-1.8.7,1.1-6.6,3.7Z"></path><path class="cls-1" d="M14.6,121.2l2.9-1.4c1.1-.5,1.8-.8,2.8-1.2h0c-1,0-1.6,0-2.6-.1l-4.5-.4-.7-1.4,6.8-3.2.6,1.2-2.9,1.4c-1.1.5-1.7.8-2.8,1.2h0c1.1,0,1.8,0,2.6.2,1.4.1,3,.3,4.6.4l.7,1.4-6.8,3.2-.6-1.2Z"></path><path class="cls-1" d="M9.4,108.4l1-.4.8,2.2,6.1-2.1.4,1.3-6.1,2.1.8,2.2-1,.4-2-5.7Z"></path><path class="cls-1" d="M8.4,104.7l2.5-.6c-.1-.3-.3-.8-.4-1.2-.4-1.7-.3-3.5,1.7-4,.8-.2,1.4,0,1.9.4.9.6,1.3,1.9,1.6,3,.2.7.3,1.4.4,2l-7.3,1.7-.3-1.3ZM14.9,103.2c0-.3,0-.6-.2-1-.2-1-.9-2.2-2.1-1.9-1.3.3-1.2,1.7-1,2.7,0,.3.2.6.3.9l3-.7Z"></path><path class="cls-1" d="M13.4,90.9c.2.3.6,1.1.7,2.1.3,2.3-1.1,3.9-3.4,4.2-2.3.3-4.2-1.1-4.5-3.5,0-.8,0-1.5.2-1.9l1.1.2c-.1.3-.3.9-.2,1.6.2,1.7,1.6,2.5,3.2,2.3,1.7-.2,2.7-1.5,2.5-2.9,0-.8-.4-1.3-.6-1.6l1-.4Z"></path><path class="cls-1" d="M13.5,83.1v1.4s-3.1,0-3.1,0v1c0,.6.2,1,.5,1.3.5.6,1.4.7,2.1,1,.2,0,.4.2.6.3v1.5c-.2-.2-.5-.3-.8-.5-.7-.3-1.7-.5-2.3-1.1-.2-.2-.4-.5-.5-.9h0c0,1-.7,2-1.8,2-.8,0-1.3-.4-1.7-1-.4-.6-.5-1.5-.6-2.5,0-.9,0-1.8.1-2.4h7.5ZM6.9,84.6c0,.3,0,.7,0,1.1,0,.9.3,2,1.3,2,1,0,1.3-1.2,1.3-2,0-.6,0-.9,0-1.2h-2.5Z"></path><path class="cls-1" d="M9.7,60.8l7.3,2-.4,1.3-6.2-1.7-.9,3.4,6.2,1.7-.4,1.3-7.3-2,1.6-6Z"></path><path class="cls-1" d="M13.1,58.3c-.9-.4-1.6-.6-2.3-.9l.5-1.1,1.2.4h0c-.6-.9-.8-1.9-.3-3.1.7-1.7,2.7-2.4,4.8-1.5,2.5,1,3.1,3.1,2.4,4.7-.4.9-1.1,1.6-2,1.7h0s3.8,1.6,3.8,1.6l-.5,1.3-7.5-3.1ZM15.5,57.8c.2,0,.4.1.5.2,1,.1,1.9-.4,2.3-1.3.6-1.3-.2-2.6-1.8-3.2-1.4-.6-2.9-.3-3.5,1-.4.9,0,1.9.8,2.6.1.1.3.2.5.3l1.2.5Z"></path><path class="cls-1" d="M15.6,46.8l2.8,1.6c1,.6,1.7,1,2.6,1.6h0c-.6-.9-.9-1.4-1.4-2.2l-2.2-4,.8-1.4,6.5,3.8-.7,1.1-2.8-1.6c-1.1-.6-1.6-1-2.6-1.6h0c.6.9,1,1.5,1.4,2.3.7,1.2,1.5,2.6,2.2,4l-.8,1.4-6.5-3.8.6-1.1Z"></path><path class="cls-1" d="M20.3,39.4c.2-.5.8-1.3,1.3-2,.8-1,2.2-2.6,3.5-1.6.7.6.8,1.5.4,2.3h0c.8-.8,1.8-1.1,2.6-.4,1.6,1.2.3,3.3-.6,4.5-.5.7-1.1,1.3-1.3,1.6l-6-4.5ZM23.5,40.2l.6-.8c.6-.8,1-1.8.3-2.4-.6-.4-1.3-.1-2.1,1-.3.4-.4.6-.6.9l1.8,1.3ZM26.3,42.3c.3-.3.5-.5.7-.9.6-.7,1.2-2,.3-2.6-.9-.7-1.7,0-2.5,1.1l-.6.8,2.1,1.5Z"></path><path class="cls-1" d="M29.3,34.4c1.4,1.2,2.7.9,3.7,0,.7-.7,1-1.3,1.1-1.8l.9.5c-.2.5-.6,1.3-1.4,2.1-1.6,1.7-3.7,1.7-5.3,0-1.7-1.6-2-3.8-.5-5.4,1.7-1.8,3.7-.8,4.7.2.2.2.3.4.4.5l-3.6,3.9ZM31.3,30.8c-.6-.6-1.9-1.3-2.9-.1-1,1-.4,2.3.2,3.1l2.7-2.9Z"></path><path class="cls-1" d="M36,22.4l.7.8-1.8,1.5,4.2,4.9-1,.9-4.2-4.9-1.8,1.5-.7-.8,4.6-4Z"></path><path class="cls-1" d="M40.8,24.5l-4.6-5.9,1.2-.9,4.3,6.1-.9.6ZM41.8,26.5c-.3-.5-.3-1,.2-1.3.5-.3,1-.2,1.3.2.3.4.3,1-.2,1.3-.4.3-1,.2-1.3-.2Z"></path></g><path class="cls-1" d="M10.1,74.3c-.5-.3-1.2,0-1.5.5-.3.5,0,1.2.5,1.5.5.3,1.2,0,1.5-.5.3-.5,0-1.2-.5-1.5Z"></path><path class="cls-1" d="M48.3,20.2c.5-.3.7-1,.4-1.5-.3-.5-1-.7-1.5-.4-.5.3-.7,1-.4,1.5.3.5,1,.7,1.5.4Z"></path><path class="cls-1" d="M160.9,95.2c.5.3,1.2.1,1.5-.4.3-.5.1-1.2-.4-1.5-.5-.3-1.2-.1-1.5.4-.3.5-.1,1.2.4,1.5Z"></path><path class="cls-1" d="M124.6,151.4c.5.3,1.2.1,1.5-.4.3-.5.1-1.2-.4-1.5-.5-.3-1.2-.1-1.5.4-.3.5-.1,1.2.4,1.5Z"></path></svg> 